<?xml version="1.0" standalone="no"?>
<!DOCTYPE svg PUBLIC "-//W3C//DTD SVG 1.1//EN" "http://www.w3.org/Graphics/SVG/1.1/DTD/svg11.dtd">
<svg xmlns="http://www.w3.org/2000/svg" id="Layer_2" data-name="Layer 2" viewBox="0 0 2816.51 1080" width="2816.510009765625" height="1080">
  <defs>
    <style>
      .cls-1 {
        fill: #f15a22;
      }

      .cls-2 {
        fill: #383838;
      }
    </style>
  </defs>
  <path class="cls-2" d="M1066.9,841.77l-44.53-130.69h-258.49l-44.53,130.69,77.45,8.71v61.96h-242.03v-60.99l41.63-10.65c11.62-2.9,20.33-6.78,24.2-18.39l212.98-610.88h136.5l213.95,612.81c3.87,11.62,11.62,13.55,23.24,16.46l44.53,10.65v60.99h-264.29v-61.96l79.38-8.71ZM789.05,625.88h209.11l-102.62-306.89h-2.9l-103.59,306.89ZM1692.28,842.74l-72.61-182.97c-11.62-30.01-27.11-41.63-60.02-41.63h-82.29v205.24c0,15.49.97,17.43,15.49,19.36l61.96,7.75v61.96h-266.23v-61.96l60.99-6.78c13.55-1.94,15.49-4.84,15.49-19.36V300.6c0-14.52-1.94-17.43-15.49-19.36l-60.99-6.78v-62.93h309.79c174.26,0,220.73,94.88,220.73,191.69,0,101.65-54.21,156.83-130.69,186.85,30.01,14.52,39.69,37.76,58.09,84.22l58.09,148.12c5.81,14.52,14.52,16.46,29.04,18.39l59.05,9.68v61.96h-264.29v-60.99l63.89-8.71ZM1701.96,408.06c0-89.07-54.21-112.3-159.74-112.3h-64.86v240.09h71.64c82.29,0,152.96-22.27,152.96-127.79ZM2231.51,924.06c-238.16,0-334.97-146.18-334.97-365.95,0-206.21,117.14-359.17,353.36-359.17,83.26,0,165.55,20.33,215.89,53.25v169.42l-82.29-5.81-16.46-93.91c-1.94-8.71-3.87-13.55-13.55-16.46-30.01-9.68-67.77-17.43-108.43-17.43-140.38,0-230.41,92.94-230.41,270.1s85.19,277.85,223.63,277.85c39.69,0,87.13-3.87,120.05-16.46,9.68-3.87,13.55-5.81,15.49-18.39l15.49-89.07h78.42v159.74c-54.21,34.85-148.12,52.28-236.22,52.28ZM2616.81,924.06c-47.44,0-71.64-22.27-71.64-66.8s24.2-66.8,71.64-66.8,70.67,23.23,70.67,66.8-24.2,66.8-70.67,66.8Z"/>
  <path class="cls-1" d="M741.88,214.84c0-.51-.03-1.02-.1-1.53-.04-.27-.06-.55-.11-.82-.11-.55-.29-1.09-.49-1.63-.08-.21-.13-.43-.22-.63-.32-.73-.71-1.44-1.2-2.11-.49-.67-1.05-1.25-1.65-1.78-.16-.14-.34-.25-.51-.37-.47-.36-.95-.7-1.46-.98-.22-.12-.45-.21-.68-.32-.49-.23-.99-.43-1.51-.58-.26-.08-.52-.14-.79-.2-.52-.11-1.03-.18-1.56-.22-.18-.01-.35-.07-.54-.08-17.51-.41-172.39-2.97-219.57,31.78-47.33,34.86-59.7,99.79-30.22,149.28l-64.85,47.75-5.84-53.58c15.84-3.24,30.27-9.83,42.81-18.78-2.2-8.32-3.56-16.79-4.07-25.28-11.36,10.45-25.38,18.16-41.17,21.78l-7.96-73.01,57.96-72.51c8.24,13.35,14.62,25.83,17.92,36.4,4.97-6.44,10.6-12.48,16.88-18.01-10-23.4-29.55-53.24-58.52-89.2-29.84-37.03-59.32-67.57-59.62-67.87-.13-.13-.28-.22-.41-.34-.38-.35-.77-.68-1.19-.97-.24-.17-.49-.34-.74-.49-.43-.26-.89-.47-1.36-.67-.26-.11-.52-.23-.79-.32-.52-.17-1.06-.28-1.61-.38-.24-.04-.47-.11-.71-.14-.78-.08-1.58-.1-2.4-.01,0,0-.01,0-.02,0,0,0,0,0-.01,0-.05,0-.09.03-.14.03-.77.1-1.51.27-2.21.51-.23.08-.43.19-.66.29-.51.21-1.02.44-1.49.73-.25.15-.47.32-.7.49-.41.29-.8.6-1.17.95-.22.21-.43.42-.63.65-.34.38-.65.78-.94,1.21-.1.15-.24.28-.34.44-.22.36-22.25,36.65-43.19,79.34-28.77,58.65-41.91,101.28-39.08,126.7,3.36,30.11,18.24,57.1,41.91,76.02,16.11,12.88,34.97,20.95,54.87,23.74,5.47.77,11.03,1.08,16.63,1.04l7.95,72.91c.03.28.11.54.16.81.05.27.09.54.16.8.13.5.31.98.5,1.45.06.15.1.31.17.45.3.64.66,1.24,1.06,1.8.02.03.03.05.05.08.07.1.17.17.24.26.34.43.7.83,1.09,1.2.18.17.37.33.56.49.34.28.7.54,1.07.78.21.13.41.27.63.39.43.24.87.43,1.33.61.17.07.33.15.5.2.64.22,1.3.39,1.98.48.04,0,.09,0,.14,0,.78.1,1.57.1,2.36.03.09,0,.18.01.27,0,.22-.02.42-.1.64-.14.4-.07.8-.14,1.2-.25.34-.1.66-.22.99-.35.34-.13.67-.27,1-.44.35-.18.68-.38,1-.6.19-.12.38-.2.56-.34l80.43-59.22c18.34,20.39,42.81,32.79,68.55,36.39,28.33,3.97,58.17-2.68,82.97-20.94,47.19-34.75,90.71-183.41,95.51-200.25.05-.17.05-.36.09-.53.12-.5.2-1.01.25-1.52.03-.3.05-.59.05-.88ZM445.23,191.51l-48.48,60.65-15.25-139.82c19.72,22.05,44.25,51.29,63.72,79.16ZM359.41,115.05l15.12,138.71-59.69-47.7c12.81-31.38,30.21-65.18,44.56-91.01ZM330.82,338.96c-19.02-15.2-30.98-36.9-33.68-61.1-1.37-12.24,2.57-29.96,9.43-49.92l71.37,57.04,8.05,73.83c-20.02-.35-39.27-7.15-55.17-19.85ZM595.71,232.73c33.64-4.6,71.69-6.43,101.25-6.91l-112.81,83.07,11.56-76.16ZM524.67,253.3c9.92-7.3,27.23-12.76,47.95-16.8l-13.82,91.05-59.47,43.79c-22.25-39.53-12.09-90.48,25.35-118.05ZM632.78,400.1c-37.43,27.57-89.11,22.15-120.25-10.83l59.47-43.79,91.05,13.82c-10.01,18.59-20.36,33.5-30.27,40.8ZM673.51,338.37l-76.16-11.56,112.81-83.07c-9.23,28.09-22.27,63.88-36.65,94.63ZM242.34,201.27c10.74-6.83,23.66,4.15,19.74,16.8-.06.18-.11.37-.17.55-1.01,3.29-3.11,6.08-5.9,7.86-19.19,12.22-34.28,27.21-45.59,41.09-30.31,37.19-44.64,79.83-45.14,98.22-.23,8.35-7.03,14.88-14.97,14.11-7.23-.71-12.57-7.56-12.31-15.29.92-27.27,18.94-75.71,51.82-116.06,13.02-15.98,30.39-33.22,52.52-47.28ZM404.42,879.46c1.1,7.52-3.31,13.12-8.38,19.2-12.43,13.7-31.82,22.31-50.71,22.25h-.39c-18.89.06-38.28-8.55-50.71-22.25-5.07-6.09-9.48-11.68-8.38-19.2.41-2.49,1.91-4.87,4.33-5.29,8.78-.28,31.99-.28,54.96-.23,22.97-.04,46.18-.04,54.96.23,2.42.43,3.91,2.81,4.33,5.29ZM579.28,466.1c9.56-.31,16.34,9.76,13.11,19.34-21.75,64.42-62.56,102.47-96.79,147.62-25.43,33.45-13.54,71.06-33.89,101.94-15.1,21.3-38.82,19.49-64.65,19.98-8.1.01-16.27.01-24.46.01s-15.99,0-23.97,0c-2.54,0-5.08,0-7.62,0-2.75,0-5.51,0-8.27,0-7.55,0-15.1,0-22.58,0-6.75,0-13.43,0-19.99-.03-23.95-.44-46.46.63-61.01-18.4-21.27-29.3-9.96-69.3-33.47-101.16-27.84-41.13-71.67-74.42-96.57-145.42-3.67-10.53-6.81-21.64-9.29-32.45-34.7-144.82,50.52-290.2,177.41-332.51,11.13-3.71,21.17,8.32,16.37,19.65l-.15.34c-1.58,3.72-4.56,6.56-8.22,7.78-12.29,4.11-24.33,9.37-36.06,15.79-30.67,16.79-58.27,41.27-79.81,70.81-21.37,29.29-36.68,63.45-44.3,98.78-8.06,37.42-7.66,75.15,1.21,112.17.02.1.05.19.07.29,2.29,9.97,5.17,20.06,8.35,29.18,15.41,43.95,39.11,71.95,62.02,99.02,11.02,13.03,21.44,25.34,30.81,39.1,16.07,22.06,19.85,46.19,22.89,65.61,2.31,14.76,4.14,26.45,10.11,34.91,5.03,6.28,14.65,7.07,35.08,7.36,1.61.02,3.22.05,4.84.07,5.64.02,11.73.03,19.71.03,3.72,0,7.47,0,11.22,0,3.78,0,7.57,0,11.36,0,2.77,0,5.53,0,8.3,0h7.6s11.99,0,11.99,0h11.98c8.1,0,16.19,0,24.21-.01,2.29-.04,4.56-.07,6.81-.09,23.31-.25,31.1-1.34,36.03-7.96,5.7-8.93,7.44-20.09,9.62-34.17,3.12-20.1,7.01-45.12,25.11-68.92,8.32-10.97,17.01-21.54,25.42-31.77,26.47-32.19,51.84-63.06,66.85-107.4,1.88-5.55,6.76-9.3,12.29-9.47.11,0,.23,0,.34-.01ZM444.71,839.69h0c0,9.25-7.04,16.74-15.72,16.74h-168.8c-8.68,0-15.72-7.5-15.72-16.74h0c0-9.25,7.04-16.74,15.72-16.74h168.8c8.68,0,15.72,7.5,15.72,16.74ZM444.71,788.49c0,9.25-7.04,16.74-15.72,16.74h-168.8c-8.68,0-15.72-7.5-15.72-16.74s7.04-16.74,15.72-16.74h168.8c8.68,0,15.72,7.5,15.72,16.74Z"/>
</svg>