<?xml version="1.0" standalone="no"?>
<!DOCTYPE svg PUBLIC "-//W3C//DTD SVG 1.1//EN" "http://www.w3.org/Graphics/SVG/1.1/DTD/svg11.dtd">
<svg xmlns="http://www.w3.org/2000/svg" id="Layer_7" data-name="Layer 7" viewBox="0 0 192.73 63.19" width="192.72999572753906" height="63.189998626708984"><defs><style>.cls-1{fill:#f15a22;}.cls-2{fill:#636466;}</style></defs><path class="cls-1" d="M8.7,50.16v-3.1l3-.34c.66-.1.76-.25.76-1v-24c0-.72-.1-.92-.76-1l-3-.34V17.33h14v3.15l-3.94.39c-.72.05-.76.25-.76.92V46H28.62c.53,0,.67,0,.77-.54l.76-4.61h4v9.27Z" transform="translate(-8.7 -17.33)"/><path class="cls-1" d="M53.31,50.16l-.47-2.86-.15,0a11.33,11.33,0,0,1-8.35,3.49c-6,0-6.78-4.17-6.78-6.89,0-4.85,2.94-7.19,8.73-7.67l6-.49V33.22c0-3.06-.52-4.71-4.17-4.71-2.61,0-4.37.19-4.37,3.54l-5.12-.48c0-6.22,5.55-7,9.58-7,6.88,0,9.45,2,9.45,8.69V45.75c0,.77,0,.87.76,1l2.32.34v3.1Zm-1-10.92-4.5.39c-3.56.34-4.65,1.36-4.65,3.69s1.09,3.11,3,3.11a9.28,9.28,0,0,0,6.12-2.92Z" transform="translate(-8.7 -17.33)"/><path class="cls-1" d="M79.41,50.16V47.1l2.37-.29c.66-.09.76-.38.76-1V34.58c0-2.92-.33-5.35-3.37-5.35a11.84,11.84,0,0,0-6.5,2.53v14c0,.77,0,.87.76,1l2.51.34v3.1H64.18V47l2.27-.29c.67-.1.76-.25.76-1V30.11c0-.54-.14-.88-.61-1L64,28.17l.47-3.11h7l.38,2.67.19.05a15.25,15.25,0,0,1,8.88-3.21c5.12,0,7.07,3.3,7.07,8.89V45.75c0,.77,0,.87.75,1l2.62.34v3.1Z" transform="translate(-8.7 -17.33)"/><path class="cls-1" d="M113.62,28.89a7.91,7.91,0,0,1,1.8,5c0,5.63-4.36,8.74-9.92,8.74a14.68,14.68,0,0,1-4-.44l-2.19,3.69,5.84.29c8.45.44,12.48.88,12.48,6.75,0,5.15-4.37,8.16-12.62,8.16s-11.34-2.28-11.34-6c0-2.33,1.28-3.73,2.89-5.29a3.23,3.23,0,0,1-2.18-3,4,4,0,0,1,1.19-2.76c.75-.88,1.75-2.09,2.61-3C96,39.82,94.5,37.3,94.5,33.9c0-5.39,3.7-9.33,10.48-9.33a17.71,17.71,0,0,1,4.46.49h8.64V28.6Zm-13.29,22a5.59,5.59,0,0,0-1.8,3.4c0,2.24,2.51,3,6.64,3,2.42,0,7-.38,7-3.49,0-2.14-1.8-2.24-4.55-2.43Zm4.93-22.33c-3.17,0-5.5,1.65-5.5,5.29,0,2.77,1.47,4.86,5.36,4.86,3.28,0,5.46-1.95,5.46-5C110.58,30.35,108.59,28.51,105.26,28.51Z" transform="translate(-8.7 -17.33)"/><path class="cls-1" d="M136.2,50.16l-.47-2.86-.14,0a11.34,11.34,0,0,1-8.35,3.49c-6,0-6.79-4.17-6.79-6.89,0-4.85,2.94-7.19,8.73-7.67l6-.49V33.22c0-3.06-.52-4.71-4.18-4.71-2.61,0-4.37.19-4.37,3.54l-5.12-.48c0-6.22,5.55-7,9.59-7,6.87,0,9.44,2,9.44,8.69V45.75c0,.77.05.87.76,1l2.32.34v3.1Zm-1-10.92-4.51.39c-3.56.34-4.65,1.36-4.65,3.69s1.09,3.11,3,3.11a9.33,9.33,0,0,0,6.12-2.92Z" transform="translate(-8.7 -17.33)"/><path class="cls-1" d="M146.93,50.16V47l2.27-.29c.67-.1.76-.25.76-1V30.11a.91.91,0,0,0-.62-1l-2.6-.92.47-3.11h7.07l.52,3.54.15,0c1.56-2.09,3.79-4.08,7-4.08a16.75,16.75,0,0,1,3.7.44v8l-4.27-.19-.57-3c-.05-.44-.14-.54-.57-.54-1.8,0-3.84,1.61-4.79,2.53V45.7c0,.77.1.92.81,1l4.45.39v3.1Z" transform="translate(-8.7 -17.33)"/><path class="cls-1" d="M184,50.16l-.47-2.86-.15,0a11.33,11.33,0,0,1-8.35,3.49c-6,0-6.78-4.17-6.78-6.89,0-4.85,2.94-7.19,8.73-7.67l6-.49V33.22c0-3.06-.53-4.71-4.18-4.71-2.61,0-4.36.19-4.36,3.54l-5.13-.48c0-6.22,5.55-7,9.59-7,6.88,0,9.44,2,9.44,8.69V45.75c0,.77,0,.87.76,1l2.32.34v3.1Zm-1-10.92-4.51.39c-3.56.34-4.66,1.36-4.66,3.69s1.1,3.11,3,3.11A9.33,9.33,0,0,0,183,43.51Z" transform="translate(-8.7 -17.33)"/><path class="cls-1" d="M198.54,50.74c-1.94,0-2.93-.92-2.93-2.79s1-2.79,2.93-2.79,2.89,1,2.89,2.79S200.44,50.74,198.54,50.74Z" transform="translate(-8.7 -17.33)"/><path class="cls-2" d="M11.19,68.38a3.35,3.35,0,0,1,1.49.3,2.14,2.14,0,0,1,.91.85,2.42,2.42,0,0,1,.32,1.25,3,3,0,0,1-.12.84,2.68,2.68,0,0,1-.37.81,3.41,3.41,0,0,1-.68.76,4.89,4.89,0,0,1-1,.66v3.71H10.15V73.14a5,5,0,0,0,1-.47,3,3,0,0,0,.68-.56,2.08,2.08,0,0,0,.38-.63,1.83,1.83,0,0,0,.13-.64,1.39,1.39,0,0,0-.14-.65,1,1,0,0,0-.43-.42,1.52,1.52,0,0,0-.71-.15,2.39,2.39,0,0,0-.63.09,3.92,3.92,0,0,0-.6.23,2.76,2.76,0,0,0-.49.27L8.78,69.1a4.43,4.43,0,0,1,1.12-.53A4.15,4.15,0,0,1,11.19,68.38Z" transform="translate(-8.7 -17.33)"/><path class="cls-2" d="M17.36,70.93a3.79,3.79,0,0,1,1.69.36,2.65,2.65,0,0,1,1.14,1.11,3.82,3.82,0,0,1,.41,1.86,4.2,4.2,0,0,1-.37,1.86,2.64,2.64,0,0,1-1.05,1.16,3.12,3.12,0,0,1-1.58.4,3.19,3.19,0,0,1-1.52-.35,2.28,2.28,0,0,1-1-1,3.39,3.39,0,0,1-.34-1.59v-.78h4.28a1.91,1.91,0,0,0-.49-1.35,1.76,1.76,0,0,0-1.33-.48,5.21,5.21,0,0,0-1.11.11,5.87,5.87,0,0,0-1,.36v-1.2a4.51,4.51,0,0,1,1-.33A5.57,5.57,0,0,1,17.36,70.93ZM16.23,75a2.14,2.14,0,0,0,.16.79,1.15,1.15,0,0,0,.44.55,1.35,1.35,0,0,0,.75.2,1.27,1.27,0,0,0,1-.4A1.86,1.86,0,0,0,19,75Z" transform="translate(-8.7 -17.33)"/><path class="cls-2" d="M23.49,77.56l2.77-6.24-.18-.5-1.23.36-.27-.88L25.65,70a.89.89,0,0,0-.39-.27,1.46,1.46,0,0,0-.5-.08,1.87,1.87,0,0,0-.34,0l-.28,0V68.46l.26,0c.11,0,.22,0,.33,0l.31,0a2.76,2.76,0,0,1,.91.14,1.56,1.56,0,0,1,.64.39,2.52,2.52,0,0,1,.49.64l1.19-.37.27.91-1.09.32,1.83,5a2.53,2.53,0,0,0,.4.79.62.62,0,0,0,.44.2l.19,0,.19,0v1.15a1.27,1.27,0,0,1-.4.12,3.13,3.13,0,0,1-.5.05,1.68,1.68,0,0,1-.7-.14,1.16,1.16,0,0,1-.47-.41,3,3,0,0,1-.32-.65l-.68-1.92-.15-.42c0-.15-.09-.29-.14-.43a3.57,3.57,0,0,1-.12-.4c0-.12-.06-.23-.08-.33h-.05c-.07.24-.14.49-.24.77s-.19.53-.29.76l-1.31,3Z" transform="translate(-8.7 -17.33)"/><path class="cls-2" d="M36.62,74.37l2.15,3.19H37.28l-1.5-2.22-1.43,2.22H33l2.07-3.17-2.08-3h1.5l1.4,2.12,1.46-2.12h1.34Z" transform="translate(-8.7 -17.33)"/><path class="cls-2" d="M42.54,72.43q0-.14-.09-.33l-.12-.43c0-.15-.07-.29-.11-.41s0-.23-.07-.29h0c0,.06,0,.16-.07.29s-.07.26-.11.41-.07.29-.1.43a2.28,2.28,0,0,1-.11.34l-.49,1.67H40.17L39,70.2h1l.53,1.87c0,.13.06.27.09.43a4,4,0,0,1,.09.45q0,.22.06.36h0q0-.14.06-.36l.09-.43c0-.14.06-.24.08-.32l.61-2h1.07l.59,2c0,.08,0,.19.08.33s.06.28.09.42,0,.26,0,.36h0c0-.08,0-.19.06-.34s.06-.3.09-.46.08-.31.12-.44l.52-1.87h1l-1.2,3.91H43Z" transform="translate(-8.7 -17.33)"/><path class="cls-2" d="M47.65,77.56H46.27v-6.2h1.19l0,.63a3.23,3.23,0,0,1,2-.77,1.49,1.49,0,0,1,1.56.81,3.11,3.11,0,0,1,2.07-.81c1.28,0,1.8.71,1.8,2.1v4.24H53.58v-4c0-.74-.18-1.16-.86-1.16a2.45,2.45,0,0,0-1.4.6c0,.1,0,.22,0,.33v4.26H50v-4c0-.74-.17-1.16-.85-1.16a2.48,2.48,0,0,0-1.45.63Z" transform="translate(-8.7 -17.33)"/><path class="cls-2" d="M58.92,70.93a3.71,3.71,0,0,1,1.68.36,2.55,2.55,0,0,1,1.14,1.11,3.71,3.71,0,0,1,.42,1.86,4.19,4.19,0,0,1-.38,1.86,2.53,2.53,0,0,1-1.05,1.16,3.08,3.08,0,0,1-1.57.4,3.16,3.16,0,0,1-1.52-.35,2.25,2.25,0,0,1-1-1,3.52,3.52,0,0,1-.34-1.59v-.78h4.29a2,2,0,0,0-.49-1.35,1.8,1.8,0,0,0-1.34-.48,5.35,5.35,0,0,0-1.11.11,5.87,5.87,0,0,0-1,.36v-1.2a4.69,4.69,0,0,1,1-.33A5.6,5.6,0,0,1,58.92,70.93ZM57.79,75a2.36,2.36,0,0,0,.15.79,1.17,1.17,0,0,0,.45.55,1.34,1.34,0,0,0,.74.2,1.29,1.29,0,0,0,1-.4A1.86,1.86,0,0,0,60.57,75Z" transform="translate(-8.7 -17.33)"/><path class="cls-2" d="M66.39,77.68a2.57,2.57,0,0,1-1.69-.56,3.31,3.31,0,0,1-1-1.6A8.44,8.44,0,0,1,63.37,73a9,9,0,0,1,.3-2.49,3.1,3.1,0,0,1,1-1.59,3,3,0,0,1,3.46,0,3.33,3.33,0,0,1,1,1.59,8.28,8.28,0,0,1,.33,2.5,9.23,9.23,0,0,1-.3,2.51,3.22,3.22,0,0,1-1,1.6A2.71,2.71,0,0,1,66.39,77.68Zm-1.5-5.32h3a6.69,6.69,0,0,0-.2-1.61,1.83,1.83,0,0,0-.49-.92,1.28,1.28,0,0,0-1.65,0,1.75,1.75,0,0,0-.48.92A7.8,7.8,0,0,0,64.89,72.36Zm1.5,4.18a1.22,1.22,0,0,0,.85-.31,2,2,0,0,0,.5-1,8.45,8.45,0,0,0,.19-1.75h-3a8.63,8.63,0,0,0,.17,1.74,1.85,1.85,0,0,0,.49,1A1.17,1.17,0,0,0,66.39,76.54Z" transform="translate(-8.7 -17.33)"/><path class="cls-2" d="M72.29,73.86l2.42-2.5h1.54l-2.11,2.23,2.27,4H74.9L73.11,74.5l-.82.8v2.26H70.92V68.5h1.37Z" transform="translate(-8.7 -17.33)"/><path class="cls-2" d="M80.2,72.43q0-.14-.09-.33c0-.14-.07-.28-.11-.43l-.11-.41c0-.13,0-.23-.07-.29h0c0,.06,0,.16-.08.29s-.06.26-.1.41-.07.29-.11.43a2.44,2.44,0,0,1-.1.34l-.49,1.67H77.84L76.66,70.2h1l.53,1.87c0,.13.06.27.09.43s.06.31.09.45,0,.27.06.36h0q0-.14.06-.36a3.29,3.29,0,0,1,.09-.43c0-.14.06-.24.08-.32l.61-2h1.07l.59,2c0,.08,0,.19.08.33l.09.42a2.81,2.81,0,0,1,0,.36h0c0-.08,0-.19,0-.34s.06-.3.1-.46.07-.31.11-.44L82,70.2h1l-1.2,3.91h-1.1Z" transform="translate(-8.7 -17.33)"/><path class="cls-2" d="M86.25,70.93a3.79,3.79,0,0,1,1.69.36,2.65,2.65,0,0,1,1.14,1.11,3.82,3.82,0,0,1,.41,1.86,4.2,4.2,0,0,1-.37,1.86,2.64,2.64,0,0,1-1.05,1.16,3.12,3.12,0,0,1-1.58.4A3.19,3.19,0,0,1,85,77.33a2.28,2.28,0,0,1-1-1,3.39,3.39,0,0,1-.34-1.59v-.78h4.28a1.91,1.91,0,0,0-.49-1.35,1.76,1.76,0,0,0-1.33-.48,5.21,5.21,0,0,0-1.11.11,5.87,5.87,0,0,0-1,.36v-1.2a4.51,4.51,0,0,1,1-.33A5.57,5.57,0,0,1,86.25,70.93ZM85.12,75a2.14,2.14,0,0,0,.16.79,1.15,1.15,0,0,0,.44.55,1.35,1.35,0,0,0,.75.2,1.27,1.27,0,0,0,1-.4A1.86,1.86,0,0,0,87.91,75Z" transform="translate(-8.7 -17.33)"/><path class="cls-2" d="M90.14,71.36h1.49L93.15,76h0l1.53-4.65H96.1c-.83,2.27-1.79,4.85-2.59,7-.5,1.36-1.06,1.88-2.16,1.88A3.42,3.42,0,0,1,90.1,80l.14-1a3.41,3.41,0,0,0,1,.19c.42,0,.75-.22,1-.85l.26-.65Z" transform="translate(-8.7 -17.33)"/><path class="cls-2" d="M99.3,70.93a3.71,3.71,0,0,1,1.68.36,2.55,2.55,0,0,1,1.14,1.11,3.71,3.71,0,0,1,.42,1.86,4.19,4.19,0,0,1-.38,1.86,2.53,2.53,0,0,1-1,1.16,3.08,3.08,0,0,1-1.57.4A3.16,3.16,0,0,1,98,77.33a2.25,2.25,0,0,1-1-1,3.52,3.52,0,0,1-.34-1.59v-.78H101a2,2,0,0,0-.49-1.35,1.8,1.8,0,0,0-1.34-.48,5.35,5.35,0,0,0-1.11.11,5.87,5.87,0,0,0-1,.36v-1.2a4.69,4.69,0,0,1,1-.33A5.6,5.6,0,0,1,99.3,70.93ZM98.17,75a2.36,2.36,0,0,0,.15.79,1.17,1.17,0,0,0,.45.55,1.34,1.34,0,0,0,.74.2,1.29,1.29,0,0,0,1-.4A1.86,1.86,0,0,0,101,75Z" transform="translate(-8.7 -17.33)"/><path class="cls-2" d="M105.38,77.56H104v-6.2h1.19l0,.63a3.26,3.26,0,0,1,2-.77,1.49,1.49,0,0,1,1.56.81,3.14,3.14,0,0,1,2.08-.81c1.27,0,1.79.71,1.79,2.1v4.24h-1.37v-4c0-.74-.18-1.16-.87-1.16a2.45,2.45,0,0,0-1.4.6c0,.1,0,.22,0,.33v4.26h-1.38v-4c0-.74-.17-1.16-.85-1.16a2.48,2.48,0,0,0-1.45.63Z" transform="translate(-8.7 -17.33)"/><path class="cls-2" d="M133.77,77.56a7.75,7.75,0,0,1,.06-1.11h0a2.08,2.08,0,0,1-2,1.24A1.58,1.58,0,0,1,130.17,76c0-1.34,1.33-2.06,3.51-2.06v-.25c0-.84-.3-1.24-1.17-1.24a4.82,4.82,0,0,0-1.8.42l-.23-1a6.49,6.49,0,0,1,2.21-.42c1.74,0,2.28.8,2.28,2.09v2.36c0,.52,0,1.13,0,1.64Zm-.09-2.74c-1.77,0-2.26.48-2.26,1a.77.77,0,0,0,.81.81A1.59,1.59,0,0,0,133.68,75Z" transform="translate(-8.7 -17.33)"/><path class="cls-2" d="M138.64,77.66c-1.27,0-1.65-.49-1.65-1.82V72.59h-1.14v-1H137V69.7l1.28-.35v2.24h1.56v1h-1.56v2.85c0,.89.18,1.13.78,1.13a3.33,3.33,0,0,0,.73-.08l.11,1A6.3,6.3,0,0,1,138.64,77.66Z" transform="translate(-8.7 -17.33)"/><path class="cls-2" d="M151.67,77.56,151,73.21c-.11-.81-.19-1.52-.25-2h0c-.1.45-.24,1-.44,1.67l-1.54,4.72h-1.32L146,73.15a20.16,20.16,0,0,1-.52-2h0c-.06.69-.13,1.4-.22,2.16l-.52,4.23h-1.32l1.21-8.1h1.56l1.56,4.7a16.62,16.62,0,0,1,.46,1.66h0c.15-.6.3-1.15.45-1.61l1.59-4.75h1.57l1.23,8.1Z" transform="translate(-8.7 -17.33)"/><path class="cls-2" d="M158.24,77.56a7.89,7.89,0,0,1,.08-1.18h0a2.18,2.18,0,0,1-2.08,1.3c-1.35,0-1.77-.87-1.77-1.91V71.59h1.27v3.83c0,.74.2,1.19.89,1.19.9,0,1.56-1,1.56-2.15V71.59h1.28v6Z" transform="translate(-8.7 -17.33)"/><path class="cls-2" d="M162.34,77.68a5,5,0,0,1-1.32-.17l.1-1.09a3.85,3.85,0,0,0,1.3.22c.68,0,1.14-.3,1.14-.78,0-1.22-2.61-.48-2.61-2.54,0-1,.79-1.85,2.43-1.85a6.1,6.1,0,0,1,1.13.12l-.07,1a3.81,3.81,0,0,0-1.13-.17c-.71,0-1,.29-1,.74,0,1.18,2.64.53,2.64,2.53C164.91,76.86,163.92,77.68,162.34,77.68Z" transform="translate(-8.7 -17.33)"/><path class="cls-2" d="M169.93,80.48V77.57a6.52,6.52,0,0,1,.09-1.11h0a2,2,0,0,1-1.86,1.23c-1.42,0-2.21-1-2.21-2.8,0-2.06,1.16-3.38,3.19-3.38a12.11,12.11,0,0,1,2.09.17v8.81Zm0-7.87a4.17,4.17,0,0,0-.94-.1c-1,0-1.72.63-1.72,2.24,0,1.2.37,1.87,1.18,1.87,1,0,1.48-1.13,1.48-2.17Z" transform="translate(-8.7 -17.33)"/><path class="cls-2" d="M176.86,77.56a7.89,7.89,0,0,1,.08-1.18h0a2.18,2.18,0,0,1-2.07,1.3c-1.36,0-1.78-.87-1.78-1.91V71.59h1.27v3.83c0,.74.21,1.19.89,1.19.9,0,1.56-1,1.56-2.15V71.59h1.28v6Z" transform="translate(-8.7 -17.33)"/><path class="cls-2" d="M184.59,74.73H180.8c0,1.29.54,1.91,1.76,1.91a4.57,4.57,0,0,0,1.71-.34l.17,1a6,6,0,0,1-2.11.39c-1.83,0-2.85-1-2.85-3.06,0-1.79,1-3.15,2.74-3.15A2.25,2.25,0,0,1,184.63,74,7.5,7.5,0,0,1,184.59,74.73Zm-2.44-2.3c-.72,0-1.23.53-1.34,1.41h2.54C183.37,73,182.91,72.43,182.15,72.43Z" transform="translate(-8.7 -17.33)"/><path class="cls-2" d="M189.27,77.56a7.75,7.75,0,0,1,.06-1.11h0a2.07,2.07,0,0,1-2,1.24A1.58,1.58,0,0,1,185.67,76c0-1.34,1.33-2.06,3.51-2.06v-.25c0-.84-.3-1.24-1.17-1.24a4.82,4.82,0,0,0-1.8.42l-.23-1a6.49,6.49,0,0,1,2.21-.42c1.74,0,2.28.8,2.28,2.09v2.36c0,.52,0,1.13,0,1.64Zm-.09-2.74c-1.77,0-2.26.48-2.26,1a.77.77,0,0,0,.81.81A1.59,1.59,0,0,0,189.18,75Z" transform="translate(-8.7 -17.33)"/><path class="cls-2" d="M199.69,77.56V73.75c0-.73-.18-1.21-.86-1.21s-1.54.85-1.54,2.17v2.85H196V73.75c0-.68-.14-1.21-.86-1.21s-1.52.91-1.52,2.17v2.85h-1.29v-6h1.23a8.12,8.12,0,0,1-.09,1.18h0a2.15,2.15,0,0,1,2-1.31,1.53,1.53,0,0,1,1.66,1.29,2.17,2.17,0,0,1,2-1.29c1.14,0,1.77.63,1.77,2v4.12Z" transform="translate(-8.7 -17.33)"/><path class="cls-2" d="M26.17,65.35a.62.62,0,0,1,.19-.48.72.72,0,0,1,.48-.17.77.77,0,0,1,.61.26,1,1,0,0,1,.23.68,1.36,1.36,0,0,1-.41,1,1.7,1.7,0,0,1-1.18.4v-.51a1.09,1.09,0,0,0,.59-.16.4.4,0,0,0,.2-.33.83.83,0,0,1-.51-.2A.68.68,0,0,1,26.17,65.35Z" transform="translate(-8.7 -17.33)"/><path class="cls-2" d="M92.39,68.33a.59.59,0,0,1,.19-.48.67.67,0,0,1,.48-.17.76.76,0,0,1,.6.25,1,1,0,0,1,.23.69,1.36,1.36,0,0,1-.41,1,1.68,1.68,0,0,1-1.18.39v-.5a1.12,1.12,0,0,0,.59-.16.42.42,0,0,0,.21-.33.84.84,0,0,1-.51-.2A.66.66,0,0,1,92.39,68.33Z" transform="translate(-8.7 -17.33)"/><path class="cls-2" d="M121,80.52v-12h.85v12Z" transform="translate(-8.7 -17.33)"/></svg>